<svg width="52" height="52" viewBox="0 0 52 52" fill="none" xmlns="http://www.w3.org/2000/svg">
<g filter="url(#filter0_d_88_3675)">
<rect x="2" y="1" width="48" height="48" rx="24" fill="#D6E3FF" shape-rendering="crispEdges"/>
<path d="M23 27.25C22.65 27.25 22.3542 27.1292 22.1125 26.8875C21.8708 26.6458 21.75 26.35 21.75 26C21.75 25.65 21.8708 25.3542 22.1125 25.1125C22.3542 24.8708 22.65 24.75 23 24.75C23.35 24.75 23.6458 24.8708 23.8875 25.1125C24.1292 25.3542 24.25 25.65 24.25 26C24.25 26.35 24.1292 26.6458 23.8875 26.8875C23.6458 27.1292 23.35 27.25 23 27.25ZM29 27.25C28.65 27.25 28.3542 27.1292 28.1125 26.8875C27.8708 26.6458 27.75 26.35 27.75 26C27.75 25.65 27.8708 25.3542 28.1125 25.1125C28.3542 24.8708 28.65 24.75 29 24.75C29.35 24.75 29.6458 24.8708 29.8875 25.1125C30.1292 25.3542 30.25 25.65 30.25 26C30.25 26.35 30.1292 26.6458 29.8875 26.8875C29.6458 27.1292 29.35 27.25 29 27.25ZM26 33C28.2333 33 30.125 32.225 31.675 30.675C33.225 29.125 34 27.2333 34 25C34 24.6 33.975 24.2125 33.925 23.8375C33.875 23.4625 33.7833 23.1 33.65 22.75C33.3 22.8333 32.95 22.8958 32.6 22.9375C32.25 22.9792 31.8833 23 31.5 23C29.9833 23 28.55 22.675 27.2 22.025C25.85 21.375 24.7 20.4667 23.75 19.3C23.2167 20.6 22.4542 21.7292 21.4625 22.6875C20.4708 23.6458 19.3167 24.3667 18 24.85C18 24.8833 18 24.9083 18 24.925C18 24.9417 18 24.9667 18 25C18 27.2333 18.775 29.125 20.325 30.675C21.875 32.225 23.7667 33 26 33ZM26 35C24.6167 35 23.3167 34.7375 22.1 34.2125C20.8833 33.6875 19.825 32.975 18.925 32.075C18.025 31.175 17.3125 30.1167 16.7875 28.9C16.2625 27.6833 16 26.3833 16 25C16 23.6167 16.2625 22.3167 16.7875 21.1C17.3125 19.8833 18.025 18.825 18.925 17.925C19.825 17.025 20.8833 16.3125 22.1 15.7875C23.3167 15.2625 24.6167 15 26 15C27.3833 15 28.6833 15.2625 29.9 15.7875C31.1167 16.3125 32.175 17.025 33.075 17.925C33.975 18.825 34.6875 19.8833 35.2125 21.1C35.7375 22.3167 36 23.6167 36 25C36 26.3833 35.7375 27.6833 35.2125 28.9C34.6875 30.1167 33.975 31.175 33.075 32.075C32.175 32.975 31.1167 33.6875 29.9 34.2125C28.6833 34.7375 27.3833 35 26 35ZM24.65 17.125C25.35 18.2917 26.3 19.2292 27.5 19.9375C28.7 20.6458 30.0333 21 31.5 21C31.7333 21 31.9583 20.9875 32.175 20.9625C32.3917 20.9375 32.6167 20.9083 32.85 20.875C32.15 19.7083 31.2 18.7708 30 18.0625C28.8 17.3542 27.4667 17 26 17C25.7667 17 25.5417 17.0125 25.325 17.0375C25.1083 17.0625 24.8833 17.0917 24.65 17.125ZM18.425 22.475C19.275 21.9917 20.0167 21.3667 20.65 20.6C21.2833 19.8333 21.7583 18.975 22.075 18.025C21.225 18.5083 20.4833 19.1333 19.85 19.9C19.2167 20.6667 18.7417 21.525 18.425 22.475Z" fill="#001B3D"/>
</g>
<defs>
<filter id="filter0_d_88_3675" x="0" y="0" width="52" height="52" filterUnits="userSpaceOnUse" color-interpolation-filters="sRGB">
<feFlood flood-opacity="0" result="BackgroundImageFix"/>
<feColorMatrix in="SourceAlpha" type="matrix" values="0 0 0 0 0 0 0 0 0 0 0 0 0 0 0 0 0 0 127 0" result="hardAlpha"/>
<feOffset dy="1"/>
<feGaussianBlur stdDeviation="1"/>
<feComposite in2="hardAlpha" operator="out"/>
<feColorMatrix type="matrix" values="0 0 0 0 0 0 0 0 0 0 0 0 0 0 0 0 0 0 0.05 0"/>
<feBlend mode="normal" in2="BackgroundImageFix" result="effect1_dropShadow_88_3675"/>
<feBlend mode="normal" in="SourceGraphic" in2="effect1_dropShadow_88_3675" result="shape"/>
</filter>
</defs>
</svg>
